<svg width="193" height="191" viewBox="0 0 193 191" fill="none" xmlns="http://www.w3.org/2000/svg">
<path d="M0 95.4251C0 42.8212 43.2924 0 96.4999 0C149.708 0 193 42.802 193 95.4251C193 148.048 149.708 190.85 96.4999 190.85C43.2924 190.85 0 148.048 0 95.4251ZM3.22818 95.4251C3.22818 146.28 45.0602 187.641 96.4999 187.641C147.92 187.641 189.753 146.28 189.753 95.4251C189.753 44.5702 147.92 3.20966 96.4999 3.20966C45.0794 3.20966 3.22818 44.5894 3.22818 95.4251Z" fill="#191919"/>
<path d="M10.5493 95.4251C10.5493 48.5678 49.1147 10.4362 96.5 10.4362C143.885 10.4362 182.451 48.5678 182.451 95.4251C182.451 142.282 143.885 180.414 96.5 180.414C49.0955 180.433 10.5493 142.302 10.5493 95.4251ZM13.7775 95.4251C13.7775 140.533 50.8825 177.224 96.5 177.224C142.117 177.224 179.223 140.533 179.223 95.4251C179.223 50.3168 142.117 13.6266 96.5 13.6266C50.8825 13.6458 13.7775 50.336 13.7775 95.4251Z" fill="#191919"/>
<path d="M21.0791 95.4251C21.0791 54.3144 54.9175 20.8531 96.4997 20.8531C138.082 20.8531 171.92 54.3144 171.92 95.4251C171.92 136.536 138.101 169.997 96.4997 169.997C54.9175 169.997 21.0791 136.555 21.0791 95.4251ZM24.3265 95.4251C24.3265 134.787 56.7045 166.787 96.4997 166.787C136.295 166.787 168.673 134.768 168.673 95.4251C168.673 56.0634 136.295 24.0628 96.4997 24.0628C56.7045 24.0628 24.3265 56.0826 24.3265 95.4251Z" fill="#191919"/>
<path d="M31.6284 95.4252C31.6284 60.0612 60.7206 31.2703 96.4997 31.2703C132.26 31.2703 161.371 60.042 161.371 95.4252C161.371 130.789 132.279 159.58 96.4997 159.58C60.7206 159.58 31.6284 130.808 31.6284 95.4252ZM34.8566 95.4252C34.8566 129.021 62.5076 156.37 96.4997 156.37C130.492 156.37 158.143 129.04 158.143 95.4252C158.143 61.8294 130.492 34.4799 96.4997 34.4799C62.5076 34.4799 34.8566 61.8294 34.8566 95.4252Z" fill="#191919"/>
<path d="M42.1777 95.4251C42.1777 65.8078 66.5429 41.7064 96.4998 41.7064C126.457 41.7064 150.822 65.8078 150.822 95.4251C150.822 125.042 126.457 149.144 96.4998 149.144C66.5429 149.163 42.1777 125.042 42.1777 95.4251ZM45.406 95.4251C45.406 123.293 68.3299 145.953 96.4998 145.953C124.67 145.953 147.594 123.293 147.594 95.4251C147.594 67.576 124.67 44.8968 96.4998 44.8968C68.3299 44.9161 45.406 67.576 45.406 95.4251Z" fill="#191919"/>
<path d="M52.708 95.4251C52.708 71.5544 72.3462 52.1234 96.5 52.1234C120.635 52.1234 140.292 71.5544 140.292 95.4251C140.292 119.296 120.654 138.727 96.5 138.727C72.3462 138.727 52.708 119.315 52.708 95.4251ZM55.9554 95.4251C55.9554 117.528 74.1524 135.517 96.5 135.517C118.867 135.517 137.045 117.528 137.045 95.4251C137.045 73.3034 118.848 55.3331 96.5 55.3331C74.1332 55.3331 55.9554 73.3226 55.9554 95.4251Z" fill="#191919"/>
</svg>
