<svg width="40" height="40" viewBox="0 0 40 40" fill="none" xmlns="http://www.w3.org/2000/svg">
<path d="M25.0078 19.7969C24.3359 19.6797 23.6328 19.6953 22.9453 19.7344C21.3828 19.8203 19.8203 19.9687 18.2578 19.8281C17.5156 19.7578 16.7656 19.6875 16.0156 19.7031C14.6562 19.7266 13.5156 20.1719 12.8438 21.4687C12.5078 22.1094 12.4297 22.7969 12.4531 23.5078C12.5078 25.5078 13.375 26.6484 15.2812 27.2187C16.8125 27.6719 18.3828 27.7344 19.9609 27.7031C20.5469 27.7031 21.1328 27.7344 21.7188 27.6953C22.9297 27.625 24.1172 27.4453 25.2656 27.0234C26.4531 26.5859 27.1641 25.75 27.4219 24.5391C27.5234 24.0703 27.5703 23.5781 27.5625 23.1016C27.5469 21.4844 26.4531 20.0391 25.0078 19.7969ZM17.3203 25.0859C16.8125 25.6406 16.0781 25.6484 15.5547 25.1094C15.1719 24.7187 14.9531 24.1172 14.9531 23.3672C14.9688 22.8594 15.1172 22.3047 15.5547 21.8594C16.0781 21.3203 16.8125 21.3281 17.3203 21.875C18.0859 22.7031 18.0859 24.2578 17.3203 25.0859ZM24.4219 25.125C23.9453 25.6172 23.2578 25.6328 22.75 25.1797C21.875 24.3828 21.875 22.6094 22.75 21.8047C23.25 21.3438 23.9375 21.3594 24.4219 21.8516C24.8672 22.3047 25.0156 22.875 25.0391 23.4844C25.0156 24.1016 24.8594 24.6641 24.4219 25.125Z" fill="#191919"/>
<path d="M36.875 0H3.125C1.39844 0 0 1.39844 0 3.125V36.875C0 38.6016 1.39844 40 3.125 40H36.875C38.6016 40 40 38.6016 40 36.875V3.125C40 1.39844 38.6016 0 36.875 0ZM30.25 21.75C30.1406 22.6406 29.9531 23.5547 29.6328 24.3906C28.6953 26.7891 26.8203 28.1094 24.3359 28.5078C22.9141 28.7344 21.4531 28.7422 19.875 28.8594C18.4609 28.7344 16.9062 28.7188 15.3984 28.4531C12.4766 27.9375 10.4922 25.8906 9.91406 22.9609C9.61719 21.4688 9.53125 19.9688 9.99219 18.4844C10.2344 17.7188 10.6328 17.0391 11.1484 16.4219C11.2188 16.3438 11.2812 16.2266 11.2734 16.125C11.1875 14.7812 11.3438 13.4531 11.7422 12.1719C12.0703 11.1016 11.8281 11.1641 13.0156 11.4766C14.4453 11.8516 15.6953 12.625 16.9219 13.4297C17.0625 13.5234 17.2812 13.5625 17.4531 13.5313C19.1875 13.2656 20.9141 13.25 22.6484 13.5547C22.7734 13.5781 22.9375 13.5312 23.0547 13.4609C24.1094 12.7734 25.1953 12.1563 26.3828 11.7266C26.8125 11.5703 27.2656 11.4688 27.7031 11.3359C27.8984 11.2813 27.9844 11.3516 28.0547 11.5391C28.5859 13.0234 28.8047 14.5469 28.7266 16.1172C28.7188 16.2031 28.7656 16.3203 28.8203 16.3906C30.1562 17.9375 30.4922 19.7812 30.25 21.75Z" fill="#191919"/>
</svg>
