<svg width="116" height="116" viewBox="0 0 116 116" fill="none" xmlns="http://www.w3.org/2000/svg">
<path d="M49.513 10.1462C49.7819 10.1056 50.0256 10.1659 50.2441 10.3271C50.4615 10.4803 50.5904 10.6914 50.631 10.9604C50.6704 11.2214 50.6095 11.4612 50.4483 11.6797C50.2871 11.8983 50.072 12.0278 49.8031 12.0685C49.542 12.1079 49.3023 12.047 49.0838 11.8858C48.8732 11.7235 48.7482 11.5118 48.7088 11.2507C48.6682 10.9818 48.7251 10.7426 48.8796 10.5332C49.0329 10.3158 49.244 10.1869 49.513 10.1462Z" fill="#EAF1F3"/>
<path d="M34.5308 15.5774C34.6504 15.7947 34.7706 15.9385 34.8915 16.0089C35.0156 16.0685 35.1666 16.0858 35.3446 16.0608L35.5525 17.1108C35.2217 17.2564 34.9199 17.322 34.6473 17.3077C34.3817 17.2896 34.125 17.1798 33.8772 16.9783C33.8422 17.3629 33.7196 17.7044 33.5094 18.0027C33.3023 18.2903 33.0236 18.5305 32.6732 18.7234C32.1196 19.0282 31.5948 19.1116 31.0989 18.9737C30.603 18.8358 30.2143 18.511 29.9328 17.9993C29.6012 17.3965 29.5659 16.8177 29.8269 16.2631C30.091 15.6976 30.6295 15.1911 31.4425 14.7435L32.1363 14.3615L31.9627 14.0461C31.7661 13.6886 31.5451 13.4861 31.2998 13.4385C31.0576 13.38 30.7543 13.4511 30.3899 13.6518C29.9834 13.8756 29.5469 14.2438 29.0802 14.7564L28.2616 14.0153C28.8089 13.367 29.4084 12.8634 30.0601 12.5046C31.4828 11.7213 32.545 11.9676 33.2468 13.2433L34.5308 15.5774ZM32.4927 17.5488C32.9482 17.298 33.1803 16.8734 33.189 16.2751L32.5701 15.1501L32.0129 15.4568C31.1439 15.9352 30.8868 16.4969 31.2416 17.1417C31.3881 17.4081 31.5684 17.5782 31.7825 17.6521C31.9967 17.726 32.2334 17.6916 32.4927 17.5488Z" fill="#EAF1F3"/>
<path d="M17.0013 23.9235C17.1525 23.7476 17.3119 23.6051 17.4795 23.4959L18.4356 24.6664C18.2741 24.7807 18.1334 24.9077 18.0135 25.0472C17.7684 25.3324 17.6786 25.6456 17.7441 25.9868C17.8034 26.3227 18.0007 26.7192 18.3358 27.1762L20.9015 29.3827L19.9004 30.5477L15.0874 26.4085L15.9556 25.3983L16.9956 26.1028C16.749 25.6902 16.6285 25.2964 16.6342 24.9215C16.6339 24.5414 16.7563 24.2087 17.0013 23.9235Z" fill="#EAF1F3"/>
<path d="M9.01687 37.2463L14.9771 39.431L14.4488 40.8733L8.48861 38.6886L9.01687 37.2463ZM5.72907 36.8719C5.82812 36.6015 5.99429 36.4153 6.22758 36.3134C6.45611 36.2012 6.69431 36.1905 6.94218 36.2814C7.19005 36.3722 7.36497 36.5343 7.46694 36.7677C7.57166 36.9935 7.57449 37.2416 7.47545 37.5121C7.37915 37.775 7.21674 37.9625 6.98821 38.0747C6.76243 38.1794 6.5256 38.1864 6.27773 38.0955C6.02986 38.0046 5.85356 37.8463 5.74884 37.6205C5.63936 37.3844 5.63277 37.1348 5.72907 36.8719Z" fill="#EAF1F3"/>
<path d="M3.50899 52.2379C3.49593 52.5416 3.55841 52.7645 3.69643 52.9066C3.8268 53.0403 4.04385 53.1137 4.34757 53.1268L5.01895 53.1557L5.08443 51.6331L6.18019 51.8484L6.12193 53.2032L11.3611 53.4287L11.2951 54.9632L6.05593 54.7377L6.01158 55.7688L4.9086 55.7213L4.95295 54.6903L4.25759 54.6603C3.65815 54.6345 3.18284 54.4219 2.83169 54.0224C2.47288 53.6146 2.30877 53.055 2.33936 52.3437C2.36343 51.7842 2.51086 51.2421 2.78166 50.7172L3.79363 51.2052C3.61899 51.542 3.52411 51.8862 3.50899 52.2379Z" fill="#EAF1F3"/>
<path d="M5.2295 65.9C5.12766 65.3412 5.21797 64.8775 5.50044 64.5088C5.77361 64.1337 6.20926 63.8916 6.80739 63.7825L11.3288 62.9578L11.6042 64.4689L7.31891 65.2506C6.94901 65.318 6.70149 65.4323 6.57635 65.5934C6.44976 65.7466 6.40942 65.9491 6.45533 66.2009C6.50266 66.4607 6.62833 66.6817 6.83234 66.8641C7.02703 67.04 7.29578 67.1983 7.63858 67.3391L11.9829 66.5467L12.2583 68.0578L6.01335 69.1969L5.77452 67.8865L6.56756 67.6198C5.81323 67.2288 5.36721 66.6556 5.2295 65.9Z" fill="#EAF1F3"/>
<path d="M9.14587 79.4623C8.75288 78.6128 8.71945 77.8261 9.0456 77.1021C9.36112 76.3741 9.99077 75.7917 10.9345 75.3547C11.5371 75.0758 12.121 74.9376 12.6864 74.9403C13.2446 74.9464 13.7447 75.0939 14.1869 75.3829C14.6291 75.6718 14.9795 76.0959 15.2381 76.6549C15.6311 77.5044 15.6699 78.2932 15.3543 79.0211C15.0316 79.7524 14.3947 80.3382 13.4436 80.7785C12.8411 81.0574 12.2608 81.1939 11.7026 81.1878C11.1445 81.1818 10.6443 81.0342 10.2022 80.7453C9.7566 80.4491 9.40451 80.0214 9.14587 79.4623ZM10.2022 78.9733C10.5884 79.8083 11.4422 79.9199 12.7635 79.3082C13.4459 78.9922 13.9034 78.657 14.136 78.3024C14.358 77.944 14.3733 77.5578 14.1819 77.144C13.9904 76.7301 13.6843 76.4972 13.2636 76.4451C12.8395 76.3858 12.2899 76.5124 11.6147 76.825C10.9396 77.1376 10.491 77.4731 10.269 77.8316C10.0363 78.1861 10.0141 78.5667 10.2022 78.9733Z" fill="#EAF1F3"/>
<path d="M16.8643 92.0886C16.6136 91.7566 16.4374 91.4235 16.3355 91.0894C16.2288 90.7489 16.1884 90.3834 16.2143 89.9928L17.3636 89.9817C17.3661 90.2505 17.3989 90.4864 17.4619 90.6895C17.525 90.8925 17.6288 91.0898 17.7734 91.2813C18.3471 92.0411 19.2115 91.9845 20.3668 91.1116C20.954 90.6679 21.3038 90.2483 21.4161 89.8526C21.522 89.4618 21.4375 89.0844 21.1628 88.7204C21.0278 88.5417 20.8762 88.4006 20.7078 88.2971C20.5347 88.1873 20.3072 88.0784 20.0253 87.9706L20.3887 86.8387C21.1395 87.0234 21.7464 87.4222 22.2091 88.0351C22.5754 88.5204 22.7883 89.0213 22.8476 89.538C22.9005 90.0596 22.8014 90.5656 22.5503 91.0561C22.2991 91.5467 21.9055 91.9945 21.3693 92.3996C20.8331 92.8047 20.2885 93.0659 19.7354 93.183C19.1759 93.3049 18.6495 93.2715 18.1561 93.0827C17.6564 92.8988 17.2258 92.5674 16.8643 92.0886Z" fill="#EAF1F3"/>
<path d="M29.3919 97.3952C29.1799 97.2249 29.0591 97.0047 29.0296 96.7347C28.9951 96.471 29.063 96.2331 29.2333 96.0209C29.3985 95.8151 29.6161 95.6974 29.8859 95.6679C30.1558 95.6384 30.3968 95.7088 30.6088 95.8792C30.8146 96.0445 30.9323 96.2622 30.9618 96.5322C30.985 96.7971 30.914 97.0326 30.7488 97.2384C30.5785 97.4505 30.3641 97.5707 30.1054 97.599C29.8418 97.6335 29.604 97.5656 29.3919 97.3952Z" fill="#EAF1F3"/>
<path d="M37.727 107.489C36.9518 107.126 36.3777 106.579 36.0046 105.847L36.9294 105.287C37.2762 105.829 37.6851 106.21 38.156 106.431C38.4313 106.56 38.6704 106.606 38.8734 106.568C39.073 106.538 39.2135 106.436 39.2949 106.262C39.356 106.132 39.3742 106.008 39.3497 105.89C39.3252 105.773 39.2483 105.635 39.119 105.478C38.9791 105.324 38.7645 105.122 38.4753 104.871C37.9303 104.413 37.5737 103.976 37.4056 103.562C37.2302 103.144 37.2578 102.689 37.4884 102.196C37.7563 101.624 38.1984 101.283 38.8147 101.174C39.4276 101.072 40.0781 101.183 40.7664 101.505C41.2373 101.726 41.6344 102 41.9578 102.328C42.2739 102.653 42.5139 103.009 42.6777 103.394L41.616 103.851C41.2924 103.24 40.859 102.808 40.3157 102.553C40.0042 102.407 39.729 102.353 39.4903 102.392C39.2442 102.427 39.0704 102.553 38.9686 102.77C38.8906 102.937 38.8658 103.084 38.8941 103.212C38.9119 103.344 38.9943 103.489 39.1415 103.646C39.2781 103.807 39.5093 104.03 39.8351 104.316C40.3473 104.75 40.6749 105.173 40.818 105.584C40.9576 106.003 40.9274 106.426 40.7273 106.854C40.578 107.173 40.3535 107.416 40.0537 107.585C39.7466 107.75 39.3926 107.828 38.9915 107.816C38.5832 107.802 38.1617 107.693 37.727 107.489Z" fill="#EAF1F3"/>
<path d="M51.123 111.022C50.1991 110.871 49.5287 110.458 49.1116 109.783C48.6854 109.114 48.5557 108.266 48.7225 107.239C48.829 106.584 49.0417 106.023 49.3607 105.556C49.6784 105.097 50.0808 104.765 50.5679 104.561C51.055 104.356 51.6026 104.304 52.2106 104.402C53.1345 104.553 53.8095 104.962 54.2357 105.631C54.6606 106.308 54.7891 107.164 54.621 108.198C54.5145 108.854 54.3024 109.411 53.9847 109.87C53.667 110.329 53.2646 110.661 52.7775 110.865C52.2825 111.068 51.731 111.121 51.123 111.022ZM51.3096 109.873C52.2177 110.02 52.7885 109.376 53.022 107.938C53.1426 107.196 53.1212 106.629 52.9579 106.238C52.7853 105.853 52.474 105.625 52.0239 105.551C51.5738 105.478 51.2094 105.601 50.9305 105.921C50.6438 106.239 50.4408 106.765 50.3215 107.499C50.2022 108.234 50.2288 108.793 50.4013 109.178C50.5647 109.569 50.8675 109.801 51.3096 109.873Z" fill="#EAF1F3"/>
<path d="M64.5402 104.808C64.7326 104.611 64.9596 104.449 65.2212 104.321C65.4749 104.194 65.7436 104.106 66.0271 104.055C66.6428 103.953 67.1423 104.043 67.5256 104.324C67.9024 104.614 68.1506 105.094 68.27 105.764L68.858 109.06L69.8385 108.884L70.0324 109.971L69.0519 110.146L69.2984 111.529L67.818 111.976L67.5398 110.416L66.0868 110.676L66.0464 109.562L67.3459 109.33L66.7642 106.069C66.7094 105.762 66.6189 105.55 66.4926 105.435C66.3585 105.321 66.1772 105.284 65.9488 105.325C65.7204 105.365 65.4857 105.485 65.2446 105.682L64.5402 104.808Z" fill="#EAF1F3"/>
<path d="M83.0975 101.548C83.0571 101.479 82.9624 101.294 82.8133 100.992L86.2507 98.9776C85.898 98.4702 85.5376 98.1714 85.1696 98.0811C84.8015 97.9908 84.4242 98.0589 84.0377 98.2854C83.7961 98.427 83.5905 98.5984 83.421 98.7997C83.2556 99.0079 83.1006 99.2657 82.956 99.5729L81.9646 99.1385C82.285 98.2924 82.818 97.651 83.5634 97.2142C84.3986 96.7248 85.1935 96.6021 85.9482 96.846C86.696 97.094 87.3286 97.6598 87.8459 98.5435C88.1734 99.1027 88.3698 99.6598 88.4352 100.215C88.5047 100.777 88.4293 101.289 88.209 101.752C87.9927 102.222 87.6326 102.605 87.1288 102.9C86.3626 103.349 85.6255 103.451 84.9175 103.208C84.2135 102.971 83.6069 102.418 83.0975 101.548ZM84.6368 101.161C85.1986 102.121 85.835 102.392 86.546 101.976C86.8704 101.786 87.055 101.515 87.0999 101.164C87.1419 100.824 87.0266 100.382 86.7539 99.8371L84.6004 101.099L84.6368 101.161Z" fill="#EAF1F3"/>
<path d="M96.4121 86.0504C95.9283 85.6564 95.5925 85.2642 95.4047 84.8739C95.2056 84.4848 95.1166 84.0873 95.1375 83.6813C95.1585 83.2753 95.2519 82.7994 95.4177 82.2535L96.5935 82.5767C96.5082 82.9096 96.4659 83.1898 96.4664 83.4172C96.4608 83.6396 96.5232 83.8607 96.6538 84.0805C96.7793 84.3066 96.9971 84.5459 97.3072 84.7985L101.866 88.5118L100.897 89.7032L96.4121 86.0504ZM103.883 91.1292C103.701 91.3525 103.483 91.4744 103.229 91.4947C102.977 91.5263 102.748 91.4587 102.543 91.292C102.339 91.1252 102.226 90.9149 102.206 90.6611C102.181 90.4134 102.259 90.1779 102.441 89.9545C102.617 89.7374 102.832 89.613 103.085 89.5814C103.332 89.5561 103.558 89.6268 103.763 89.7935C103.968 89.9602 104.083 90.1674 104.108 90.4151C104.135 90.674 104.059 90.912 103.883 91.1292Z" fill="#EAF1F3"/>
<path d="M109.383 72.896C109.085 73.7832 108.569 74.3775 107.834 74.6791C107.105 74.9908 106.248 74.9808 105.262 74.6491C104.633 74.4374 104.113 74.1361 103.705 73.7453C103.304 73.3571 103.042 72.906 102.919 72.3921C102.796 71.8782 102.833 71.3293 103.03 70.7454C103.328 69.8582 103.842 69.2587 104.571 68.9471C105.308 68.6379 106.173 68.6505 107.166 68.9847C107.796 69.1964 108.311 69.4964 108.712 69.8846C109.113 70.2729 109.375 70.7239 109.498 71.2379C109.618 71.7594 109.58 72.3121 109.383 72.896ZM108.28 72.5248C108.573 71.6527 108.03 70.9846 106.65 70.5202C105.937 70.2804 105.375 70.2093 104.962 70.3068C104.555 70.4144 104.278 70.6844 104.133 71.1166C103.987 71.5488 104.05 71.9285 104.32 72.2556C104.587 72.5903 105.073 72.8763 105.778 73.1136C106.483 73.3508 107.04 73.4157 107.447 73.308C107.86 73.2105 108.137 72.9494 108.28 72.5248Z" fill="#EAF1F3"/>
<path d="M111.402 59.9331C111.398 60.1651 111.367 60.3766 111.308 60.5676L109.824 60.2795C109.875 60.0883 109.902 59.9007 109.905 59.7167C109.911 59.3408 109.78 59.0426 109.512 58.8222C109.251 58.602 108.846 58.4234 108.296 58.2864L104.913 58.2314L104.938 56.6956L111.285 56.7988L111.263 58.1306L110.013 58.2543C110.467 58.4137 110.811 58.6393 111.046 58.9312C111.29 59.2232 111.408 59.5571 111.402 59.9331Z" fill="#EAF1F3"/>
<path d="M109.055 42.1655C109.319 42.9209 109.238 43.5761 108.813 44.1311C108.388 44.6861 107.677 45.1376 106.68 45.4856C106.061 45.7018 105.476 45.7998 104.927 45.7796C104.388 45.7644 103.919 45.623 103.521 45.3553C103.125 45.0951 102.842 44.7196 102.671 44.2286C102.449 43.594 102.493 43.0153 102.802 42.4922L100.004 43.4689L99.3393 42.0739L107.803 39.1202L108.245 40.3892L107.536 40.7256C107.92 40.8543 108.24 41.0434 108.497 41.2928C108.753 41.5422 108.939 41.8331 109.055 42.1655ZM103.639 43.4331C103.931 44.2716 104.765 44.451 106.139 43.9712C106.872 43.7155 107.368 43.4366 107.627 43.1344C107.886 42.8322 107.949 42.4922 107.817 42.1145C107.733 41.8728 107.579 41.6726 107.354 41.5138C107.137 41.3524 106.877 41.2396 106.575 41.1755L103.878 42.1166C103.561 42.5411 103.481 42.9799 103.639 43.4331Z" fill="#EAF1F3"/>
<path d="M101.184 35.5729C101.305 35.8166 101.322 36.0672 101.235 36.3245C101.156 36.5783 100.994 36.7656 100.75 36.8864C100.514 37.0037 100.267 37.019 100.01 36.9323C99.7525 36.8455 99.5634 36.6803 99.4427 36.4366C99.3255 36.2 99.3102 35.9531 99.397 35.6958C99.4873 35.4456 99.6507 35.2619 99.8872 35.1446C100.131 35.0237 100.376 35.0049 100.623 35.088C100.876 35.1676 101.064 35.3292 101.184 35.5729Z" fill="#EAF1F3"/>
<path d="M97.9816 22.4807C98.5155 23.1499 98.7876 23.8949 98.7979 24.7159L97.7204 24.8085C97.6499 24.1686 97.4525 23.6454 97.1282 23.239C96.9386 23.0013 96.7445 22.8543 96.546 22.7978C96.3537 22.7364 96.1825 22.7656 96.0325 22.8854C95.92 22.9752 95.8486 23.0783 95.8185 23.1944C95.7884 23.3106 95.7963 23.4681 95.8423 23.6668C95.8996 23.8668 96.0023 24.1431 96.1505 24.4957C96.4358 25.1483 96.562 25.6976 96.529 26.1437C96.501 26.596 96.2744 26.9919 95.8493 27.3314C95.3554 27.7257 94.8082 27.8351 94.2076 27.6595C93.6132 27.4789 93.079 27.0916 92.605 26.4975C92.2807 26.091 92.0463 25.669 91.9019 25.2315C91.7625 24.8002 91.7049 24.3753 91.7291 23.9567L92.8833 24.0179C92.9025 24.709 93.0992 25.289 93.4734 25.758C93.6879 26.0269 93.9107 26.1971 94.1417 26.2686C94.3777 26.3463 94.5895 26.3103 94.777 26.1606C94.9208 26.0458 95.0084 25.9246 95.0398 25.7972C95.0824 25.671 95.0726 25.5048 95.0104 25.2986C94.9594 25.0936 94.8511 24.7911 94.6854 24.391C94.4188 23.7746 94.3126 23.2503 94.3668 22.818C94.4273 22.3807 94.6419 22.0148 95.0108 21.7203C95.2858 21.5006 95.5951 21.3816 95.9387 21.3633C96.2872 21.3511 96.6387 21.439 96.9933 21.6268C97.3528 21.8209 97.6823 22.1055 97.9816 22.4807Z" fill="#EAF1F3"/>
<path d="M88.2337 22.1142L87.1733 21.3081L87.6436 20.5502C87.2412 20.6964 86.8593 20.7428 86.4981 20.6893C86.1433 20.6406 85.7939 20.4856 85.45 20.2241C84.9978 19.8804 84.7516 19.4771 84.7113 19.0144C84.6822 18.5501 84.854 18.0727 85.2266 17.5822L87.9849 13.951L89.2077 14.8806L86.5655 18.3589C86.3478 18.6455 86.2407 18.8857 86.2443 19.0793C86.2542 19.2779 86.3675 19.4594 86.584 19.624C86.9725 19.9194 87.4947 19.9395 88.1506 19.6844L90.8508 16.1297L92.0736 17.0593L88.2337 22.1142Z" fill="#EAF1F3"/>
<path d="M81.4654 13.4933C81.4335 13.5666 81.3394 13.7525 81.1831 14.0509L77.5314 12.458C77.3293 13.0419 77.3001 13.5092 77.444 13.86C77.5878 14.2107 77.865 14.4757 78.2757 14.6548C78.5323 14.7667 78.7919 14.832 79.0543 14.8504C79.32 14.8616 79.6195 14.8351 79.9529 14.7711L80.1858 15.8284C79.3136 16.0676 78.4815 16.0145 77.6896 15.6691C76.8023 15.282 76.235 14.7116 75.9875 13.9578C75.7475 13.2072 75.832 12.3626 76.2411 11.4239C76.5 10.8298 76.8344 10.3429 77.2443 9.96313C77.6574 9.576 78.1158 9.33519 78.6195 9.2407C79.1264 9.13888 79.6475 9.20472 80.1828 9.43822C80.9968 9.79326 81.5139 10.3287 81.7342 11.0445C81.9578 11.753 81.8682 12.5692 81.4654 13.4933ZM80.2459 12.4769C80.6903 11.4575 80.5348 10.7831 79.7795 10.4537C79.4349 10.3033 79.1076 10.3133 78.7978 10.4836C78.4984 10.6498 78.209 11.0036 77.9294 11.545L80.2172 12.5429L80.2459 12.4769Z" fill="#EAF1F3"/>
<path d="M67.6758 5.45777C68.1832 5.52638 68.5639 5.75548 68.8181 6.14505C69.0733 6.52669 69.1612 7.01085 69.0819 7.59752L68.4665 12.1521L66.9443 11.9463L67.5277 7.6295C67.6187 6.95563 67.4343 6.5876 66.9745 6.52541C66.7288 6.49218 66.504 6.54251 66.3002 6.67641C66.1055 6.80345 65.891 7.01663 65.6568 7.31594L65.0654 11.6922L63.5433 11.4863L64.1266 7.16955C64.2177 6.49567 64.0333 6.12764 63.5735 6.06546C63.3198 6.03115 63.0911 6.08095 62.8873 6.21485C62.6925 6.34189 62.4781 6.55507 62.2439 6.85438L61.6525 11.2306L60.1304 11.0248L60.9804 4.73393L62.3004 4.91244L62.3085 5.74907C62.8741 5.14745 63.5256 4.8965 64.2629 4.99621C64.6276 5.04553 64.9279 5.18301 65.1638 5.40866C65.4087 5.62746 65.5681 5.91138 65.642 6.26044C65.9418 5.95385 66.2546 5.72975 66.5805 5.58815C66.9143 5.44762 67.2794 5.40416 67.6758 5.45777Z" fill="#EAF1F3"/>
</svg>
