<svg width="40" height="40" viewBox="0 0 40 40" fill="none" xmlns="http://www.w3.org/2000/svg">
<path d="M2.598 31.1914C3.462 33.8556 6.088 35.5557 8.89 35.5557H9C9.25706 36.8104 9.93938 37.9379 10.9316 38.7477C11.9239 39.5575 13.1653 39.9998 14.446 40C15.36 40 16.214 39.77 16.97 39.374C17.2855 39.201 17.548 38.9454 17.7295 38.6347C17.9109 38.3239 18.0044 37.9697 18 37.6098V2.0515C18.004 1.59327 17.8501 1.14763 17.5642 0.789547C17.2783 0.431466 16.8777 0.182796 16.43 0.0853726C15.4266 -0.109529 14.387 0.0317704 13.472 0.487399C11.984 1.19945 11.112 2.78955 11.112 4.44366V4.55367C9.99842 4.32637 8.84193 4.44607 7.79851 4.89663C6.75508 5.34719 5.87492 6.10692 5.27674 7.07336C4.67856 8.0398 4.39113 9.16646 4.45323 10.3014C4.51532 11.4363 4.92395 12.5248 5.624 13.4203C4.05617 13.6659 2.62775 14.4639 1.59648 15.6702C0.565213 16.8764 -0.00100086 18.4116 1.32812e-06 19.9987C1.32812e-06 22.3548 1.222 24.421 3.066 25.6231C2.206 27.1652 1.924 29.1153 2.598 31.1914ZM34.376 13.4203C35.076 12.5248 35.4847 11.4363 35.5468 10.3014C35.6089 9.16646 35.3214 8.0398 34.7233 7.07336C34.1251 6.10692 33.2449 5.34719 32.2015 4.89663C31.1581 4.44607 30.0016 4.32637 28.888 4.55367V4.44366C28.888 2.79155 28.014 1.19945 26.526 0.487399C25.6118 0.0316349 24.5727 -0.109681 23.57 0.0853726C23.1224 0.18314 22.7221 0.431902 22.4362 0.789907C22.1504 1.14791 21.9963 1.59337 22 2.0515V37.6078C22 38.3379 22.384 39.0319 23.032 39.372C23.788 39.77 24.64 40 25.554 40C26.835 39.9997 28.0766 39.5571 29.0689 38.7469C30.0612 37.9368 30.7433 36.8088 31 35.5537H31.112C33.912 35.5537 36.54 33.8536 37.404 31.1894C38.078 29.1133 37.796 27.1632 36.936 25.6211C37.8753 25.0141 38.6478 24.1816 39.183 23.1996C39.7182 22.2175 39.9991 21.1171 40 19.9987C40.001 18.4116 39.4348 16.8764 38.4035 15.6702C37.3722 14.4639 35.9438 13.6659 34.376 13.4203Z" fill="url(#paint0_linear_35_3267)"/>
<defs>
<linearGradient id="paint0_linear_35_3267" x1="40" y1="20" x2="0" y2="20" gradientUnits="userSpaceOnUse">
<stop stop-color="#118BA6"/>
<stop offset="1" stop-color="#3FD3F3"/>
</linearGradient>
</defs>
</svg>
