<svg width="40" height="40" viewBox="0 0 40 40" fill="none" xmlns="http://www.w3.org/2000/svg">
<path d="M4.44444 40C3.22222 40 2.17593 39.5648 1.30556 38.6944C0.435185 37.8241 0 36.7778 0 35.5556V4.44444C0 3.22222 0.435185 2.17593 1.30556 1.30556C2.17593 0.435185 3.22222 0 4.44444 0H35.5556C36.7778 0 37.8241 0.435185 38.6944 1.30556C39.5648 2.17593 40 3.22222 40 4.44444V35.5556C40 36.7778 39.5648 37.8241 38.6944 38.6944C37.8241 39.5648 36.7778 40 35.5556 40H4.44444ZM20 28.8889C21.4074 28.8889 22.6852 28.4815 23.8333 27.6667C24.9815 26.8519 25.7778 25.7778 26.2222 24.4444H35.5556V4.44444H4.44444V24.4444H13.7778C14.2222 25.7778 15.0185 26.8519 16.1667 27.6667C17.3148 28.4815 18.5926 28.8889 20 28.8889Z" fill="#118BA6"/>
</svg>
