<svg width="40" height="40" viewBox="0 0 40 40" fill="none" xmlns="http://www.w3.org/2000/svg">
<path d="M37.0405 0H2.95145C2.94078 0 2.92878 0 2.91544 0C1.31635 0 0.0186716 1.28568 0 2.87943V37.1179C0.0186716 38.713 1.31635 40 2.91544 40C2.92878 40 2.94078 40 2.95412 40H37.0365C37.0472 40 37.0606 40 37.0739 40C38.6743 40 39.9747 38.7157 40 37.1206V37.1179V2.8821C39.9747 1.28568 38.6743 0 37.0726 0C37.0592 0 37.0472 0 37.0339 0H37.0405ZM11.8632 34.0864H5.92291V15H11.8632V34.0864ZM8.89437 12.3886C6.99386 12.3886 5.45479 10.8482 5.45479 8.94905C5.45479 7.04988 6.9952 5.50947 8.89437 5.50947C10.7935 5.50947 12.334 7.04855 12.334 8.94772C12.334 8.94905 12.334 8.95039 12.334 8.95305C12.334 10.8509 10.7949 12.39 8.89704 12.39C8.89571 12.39 8.89437 12.39 8.89304 12.39L8.89437 12.3886ZM34.0771 34.0864H28.1542V24.8053C28.1542 22.5914 28.1088 19.7439 25.068 19.7439C21.9792 19.7439 21.5084 22.1526 21.5084 24.6426V34.0878H15.5855V15.0013H21.275V17.6034H21.3524C22.4567 15.7429 24.4545 14.5159 26.7391 14.5159C26.8205 14.5159 26.9005 14.5172 26.9805 14.5199H26.9685C32.9701 14.5199 34.0798 18.4703 34.0798 23.6116V34.0878L34.0771 34.0864Z" fill="#118BA6"/>
</svg>
